<svg width="40" height="40" viewBox="0 0 40 40" fill="none" xmlns="http://www.w3.org/2000/svg">
<path d="M24.6682 15.332H15.335C14.235 15.332 13.335 16.232 13.335 17.332V22.6653C13.335 23.7653 14.235 24.6653 15.335 24.6653H24.6682C25.7682 24.6653 26.6682 23.7653 26.6682 22.6653V17.332C26.6682 16.232 25.7682 15.332 24.6682 15.332ZM23.3349 21.9987H16.6683C16.3016 21.9987 16.0016 21.6987 16.0016 21.332C16.0016 20.9653 16.3016 20.6653 16.6683 20.6653H23.3349C23.7016 20.6653 24.0016 20.9653 24.0016 21.332C24.0016 21.6987 23.7016 21.9987 23.3349 21.9987ZM16.0014 18.6653C16.0014 18.2987 16.3014 17.9987 16.6681 17.9987H20.668C21.0347 17.9987 21.3347 18.2987 21.3347 18.6653C21.3347 19.032 21.0347 19.332 20.668 19.332H16.6681C16.3014 19.332 16.0014 19.032 16.0014 18.6653Z" fill="white"/>
<path d="M24.6665 29.3309H15.3333C14.2333 29.3309 13.3333 30.2309 13.3333 31.3309V33.3309H7.66673C4.17342 33.3309 1.33333 30.4909 1.33333 26.9975C1.33333 23.5041 4.17329 20.6641 7.66673 20.6641H9.72671L8.86007 21.5241C8.60007 21.7841 8.60007 22.2108 8.86007 22.4708C8.9934 22.5974 9.16007 22.6641 9.33341 22.6641C9.50676 22.6641 9.67341 22.5974 9.80676 22.4708L11.8067 20.4708C12.0667 20.2108 12.0667 19.7841 11.8067 19.5241L9.80676 17.5241C9.54675 17.2641 9.12008 17.2641 8.86007 17.5241C8.60006 17.7841 8.60007 18.2108 8.86007 18.4708L9.72671 19.3308H7.66673C3.44011 19.3308 0 22.7708 0 26.9975C0 31.2243 3.43998 34.6642 7.66673 34.6642H13.3333V36.6642C13.3333 37.7642 14.2333 38.6642 15.3333 38.6642H24.6665C25.7665 38.6642 26.6665 37.7642 26.6665 36.6642V31.3309C26.6665 30.2309 25.7665 29.3309 24.6665 29.3309ZM23.3332 35.9976H16.6666C16.2999 35.9976 15.9999 35.6976 15.9999 35.3309C15.9999 34.9642 16.2999 34.6642 16.6666 34.6642H23.3332C23.6999 34.6642 23.9999 34.9642 23.9999 35.3309C23.9999 35.6976 23.6999 35.9976 23.3332 35.9976ZM15.9997 32.6642C15.9997 32.2976 16.2997 31.9976 16.6664 31.9976H20.6663C21.033 31.9976 21.333 32.2976 21.333 32.6642C21.333 33.0309 21.033 33.3309 20.6663 33.3309H16.6664C16.2997 33.3309 15.9997 33.0309 15.9997 32.6642Z" fill="white"/>
<path d="M33.9978 27.998C30.6912 27.998 27.998 30.6914 27.998 33.9978C27.998 37.3042 30.6914 39.9976 33.9978 39.9976C37.3042 39.9976 39.9976 37.3042 39.9976 33.9978C39.9976 30.6914 37.3042 27.998 33.9978 27.998ZM33.9978 38.6647C31.4245 38.6647 29.3309 36.5714 29.3309 33.9978C29.3309 31.4242 31.4242 29.3309 33.9978 29.3309C36.5714 29.3309 38.6647 31.4242 38.6647 33.9978C38.6647 36.5714 36.5714 38.6647 33.9978 38.6647Z" fill="white"/>
<path d="M35.8608 31.86L33.0008 34.72L32.1408 33.86C31.8808 33.6 31.4608 33.6 31.2008 33.86C30.9409 34.12 30.9408 34.54 31.2008 34.8L32.5342 36.1333C32.6675 36.2667 32.8342 36.3267 33.0075 36.3267C33.1809 36.3267 33.3475 36.26 33.4809 36.1333L36.8142 32.8C37.0742 32.54 37.0742 32.12 36.8142 31.86C36.5542 31.6001 36.1342 31.6 35.8742 31.86H35.8608Z" fill="white"/>
<path d="M0.0469168 7.41327C-0.046416 7.75327 0.000248246 8.11326 0.180249 8.41995L0.846913 9.57996C1.02691 9.88663 1.3136 10.1066 1.65356 10.1999C2.00023 10.2933 2.36021 10.2399 2.66689 10.0666L3.06023 9.83995C3.26689 9.97995 3.48023 10.1066 3.70688 10.2133V10.6666C3.70688 11.4 4.30685 11.9999 5.04021 11.9999H6.37353C7.11354 11.9999 7.70686 11.4 7.70686 10.6666V10.2133C7.93352 10.1066 8.15353 9.97995 8.36017 9.83995L8.74683 10.0666C9.38683 10.4333 10.2001 10.2133 10.5735 9.57996L11.2401 8.41995C11.4135 8.11328 11.4601 7.75328 11.3735 7.41327C11.2801 7.06661 11.0601 6.77993 10.7468 6.59997L10.3601 6.3733C10.3668 6.24663 10.3734 6.12664 10.3734 5.99997C10.3734 5.8733 10.3668 5.75331 10.3601 5.62664L10.7468 5.39997C11.0601 5.21997 11.2801 4.93329 11.3735 4.58666C11.4601 4.24666 11.4135 3.88668 11.2401 3.57999L10.5735 2.41998C10.2068 1.78664 9.38683 1.56665 8.74683 1.93332L8.36017 2.15999C8.1535 2.01999 7.9335 1.89332 7.70686 1.78666V1.33333C7.70686 0.599976 7.11354 0 6.37353 0H5.04021C4.30685 0 3.70688 0.599976 3.70688 1.33333V1.78666C3.48021 1.89332 3.2669 2.01999 3.06023 2.15999L2.66689 1.93332C2.36023 1.75999 2.00023 1.70666 1.65356 1.79999C1.31356 1.89332 1.02688 2.11332 0.846913 2.41998L0.180249 3.57999C0.000248246 3.88666 -0.046416 4.24666 0.0469168 4.58666C0.14025 4.93333 0.360251 5.22001 0.666903 5.39997L1.06024 5.62664C1.0469 5.75331 1.04024 5.87997 1.04024 5.99997C1.04024 6.11997 1.0469 6.24663 1.06024 6.3733L0.666903 6.59997C0.360238 6.77997 0.140228 7.06665 0.0469168 7.41327ZM2.43359 6.60662C2.39359 6.39329 2.37359 6.19329 2.37359 5.99995C2.37359 5.8066 2.39359 5.60661 2.43359 5.39327C2.48693 5.11328 2.35359 4.83328 2.11359 4.69329L1.33361 4.24661L2.00027 3.0866L2.78026 3.53993C3.02026 3.67993 3.3336 3.65326 3.54693 3.46659C3.8536 3.19993 4.20694 2.99991 4.60028 2.85992C4.86694 2.76659 5.04026 2.51325 5.04026 2.23323V1.33323H6.37358V2.23323C6.37358 2.51323 6.55358 2.76657 6.82026 2.85992C7.20692 2.99992 7.56027 3.19992 7.87361 3.46659C8.08694 3.65326 8.39363 3.67993 8.64028 3.53993L9.41361 3.0866L10.0803 4.24661L9.30694 4.69329C9.06028 4.83329 8.93361 5.11329 8.98028 5.39327C9.02028 5.60661 9.04028 5.8066 9.04028 5.99995C9.04028 6.19329 9.02028 6.39328 8.98028 6.60662C8.93361 6.88662 9.06028 7.16662 9.30694 7.30661L10.0803 7.75328L9.41361 8.9133L8.64028 8.45997C8.39362 8.31997 8.08694 8.34664 7.87361 8.5333C7.56027 8.79997 7.20694 8.99999 6.82026 9.13998C6.55359 9.23331 6.37358 9.48664 6.37358 9.76666V10.6667H5.04026V9.76666C5.04026 9.48666 4.86692 9.23333 4.60028 9.13998C4.20695 8.99998 3.85362 8.79998 3.54693 8.5333C3.42026 8.42664 3.26693 8.3733 3.11361 8.3733C3.00028 8.3733 2.88028 8.39997 2.78028 8.45997L2.00029 8.9133L1.33363 7.75328L2.11362 7.30661C2.35361 7.16661 2.48693 6.88661 2.43359 6.60662Z" fill="white"/>
<path d="M7.70603 5.99901C7.70603 8.66567 3.70605 8.66567 3.70605 5.99901C3.70605 3.33236 7.70603 3.33236 7.70603 5.99901Z" fill="white"/>
<path d="M31.1414 17.5265C30.8814 17.2665 30.4547 17.2665 30.1947 17.5265L28.1947 19.5264C27.9347 19.7864 27.9347 20.2131 28.1947 20.4731L30.1947 22.4731C30.3281 22.5998 30.4947 22.6665 30.6681 22.6665C30.8414 22.6665 31.0081 22.5998 31.1414 22.4731C31.4014 22.2131 31.4014 21.7864 31.1414 21.5264L30.2748 20.6665H32.3348C36.5614 20.6665 40.0015 17.2265 40.0015 12.9997C40.0015 8.77297 36.5615 5.33299 32.3348 5.33299H26.6682V3.333C26.6682 2.23301 25.7682 1.33301 24.6682 1.33301H15.335C14.235 1.33301 13.335 2.23301 13.335 3.333V8.6663C13.335 9.76629 14.235 10.6663 15.335 10.6663H24.6682C25.7682 10.6663 26.6682 9.76629 26.6682 8.6663V6.66631H32.3348C35.8281 6.66631 38.6682 9.50628 38.6682 12.9997C38.6682 16.4932 35.8282 19.3331 32.3348 19.3331H30.2748L31.1414 18.4731C31.4014 18.2131 31.4014 17.7865 31.1414 17.5265ZM23.3347 7.9999H16.6681C16.3014 7.9999 16.0014 7.6999 16.0014 7.33323C16.0014 6.96657 16.3014 6.66657 16.6681 6.66657H23.3347C23.7014 6.66657 24.0014 6.96657 24.0014 7.33323C24.0014 7.6999 23.7014 7.9999 23.3347 7.9999ZM16.0012 4.66658C16.0012 4.29991 16.3012 3.99992 16.6679 3.99992H20.6679C21.0345 3.99992 21.3345 4.29991 21.3345 4.66658C21.3345 5.03325 21.0345 5.33324 20.6679 5.33324H16.6679C16.3012 5.33324 16.0012 5.03325 16.0012 4.66658Z" fill="white"/>
</svg>
