<svg width="40" height="40" viewBox="0 0 40 40" fill="none" xmlns="http://www.w3.org/2000/svg">
<path fill-rule="evenodd" clip-rule="evenodd" d="M17.0824 8.55863H14.5349C14.3497 8.55686 14.1816 8.44697 14.0984 8.27683C14.0135 8.10491 14.0288 7.89932 14.1357 7.74157L19.2001 0.427138C19.3852 0.159515 19.6824 0 20 0C20.3176 0 20.6148 0.15951 20.7999 0.427138L25.8643 7.75065C25.9713 7.90839 25.9865 8.11398 25.9016 8.2859C25.8184 8.45782 25.6503 8.56594 25.4651 8.56771H22.9176V16.4035C21.8425 17.0823 20.8608 17.91 19.9998 18.8617C19.1387 17.9082 18.1571 17.0805 17.082 16.4035L17.0824 8.55863ZM31.8007 15.2193H30.0004C26.5765 15.2228 23.2935 16.646 20.8717 19.1716C18.4499 21.6989 17.0878 25.1248 17.0827 28.6997V39.3921C17.0827 39.7289 17.3442 40 17.6652 40H22.3356C22.6566 40 22.9182 39.7288 22.9182 39.3921V28.6997C22.9216 26.7395 23.6689 24.8626 24.9952 23.4765C26.3234 22.0905 28.1236 21.3107 30.0005 21.3071H31.8007V23.9657C31.7973 24.1589 31.9009 24.3343 32.0657 24.4194C32.2304 24.5098 32.4291 24.4938 32.5786 24.3786L39.5912 19.0937C39.8493 18.9005 40.0005 18.5903 40.0005 18.2607C40.0005 17.9311 39.8493 17.6209 39.5912 17.4277L32.5786 12.1428C32.4308 12.0276 32.2321 12.0099 32.0674 12.0967C31.9009 12.1853 31.799 12.3626 31.8007 12.5557L31.8007 15.2193ZM8.20026 15.2193V12.5554C8.20196 12.3622 8.10005 12.185 7.93362 12.0964C7.76887 12.0095 7.57017 12.0273 7.4224 12.1425L0.409796 17.4274C0.151644 17.6206 0.000488281 17.9308 0.000488281 18.2604C0.000488281 18.59 0.151644 18.9002 0.409796 19.0934L7.4224 24.3838C7.57186 24.499 7.77056 24.5132 7.93531 24.4245C8.10006 24.3395 8.20366 24.1622 8.20026 23.9708V21.307H10.0005C11.8789 21.3087 13.6792 22.0886 15.0057 23.4763C15.6511 24.1533 16.1657 24.9527 16.5224 25.8317C16.9776 23.5047 17.9796 21.3353 19.4402 19.515C17.003 16.775 13.5823 15.2189 10.0006 15.2189L8.20026 15.2193Z" fill="white"/>
</svg>
