<svg width="36" height="40" viewBox="0 0 36 40" fill="none" xmlns="http://www.w3.org/2000/svg">
<path d="M12.0331 0C14.1483 0.0188429 16.1704 0.869987 17.6595 2.36821C19.1485 3.86644 19.9839 5.89049 19.984 7.99991C19.984 10.1093 19.1486 12.1334 17.6596 13.6317C16.1706 15.1299 14.1485 15.9811 12.0333 16C9.9181 15.9812 7.89597 15.13 6.40693 13.6318C4.91789 12.1336 4.08246 10.1095 4.08244 8.00009C4.08242 5.89067 4.9178 3.8666 6.4068 2.36834C7.89581 0.870079 9.91792 0.0188904 12.0331 0ZM12.0333 29C12.0362 26.8001 12.599 24.637 13.6688 22.7131C14.7386 20.7892 16.2806 19.1676 18.1502 18H5.01387C3.68426 18.0005 2.40924 18.5274 1.46906 19.465C0.528885 20.4026 0.000483715 21.6741 0 23V35C0.000483715 36.3259 0.528885 37.5974 1.46906 38.535C2.40924 39.4726 3.68426 39.9995 5.01387 40H18.1502C16.2806 38.8324 14.7387 37.2108 13.6688 35.2869C12.599 33.363 12.0363 31.1999 12.0333 29ZM25.0696 40C10.5003 39.5156 10.4953 18.4872 25.0694 18C39.6423 18.4674 39.6447 39.5307 25.0696 40ZM29.4415 25.22C28.8159 25.7535 23.6024 30.2224 23.124 30.62L20.8176 27.92C20.6427 27.7257 20.3985 27.6073 20.1372 27.5901C19.8759 27.573 19.6182 27.6584 19.4192 27.8281C19.2202 27.9978 19.0956 28.2384 19.0721 28.4985C19.0486 28.7586 19.128 29.0175 19.2934 29.22L22.2616 32.68C22.358 32.7863 22.4756 32.8714 22.6068 32.93C22.738 32.9886 22.88 33.0193 23.0238 33.0202C23.4749 33.3105 30.161 27.0845 30.7452 26.7401C31.7349 25.914 30.4188 24.3507 29.4415 25.22Z" fill="white"/>
</svg>
