<svg width="40" height="40" viewBox="0 0 40 40" fill="none" xmlns="http://www.w3.org/2000/svg">
<path fill-rule="evenodd" clip-rule="evenodd" d="M19.5435 9.40864L19.7734 9.29449H19.7717C20.2163 9.07115 20.758 9.15387 21.1089 9.50129L21.8039 10.178L22.4989 10.853H22.4972C22.8567 11.1921 22.9418 11.7199 22.7102 12.15L22.5926 12.3734C22.2741 12.959 22.269 13.6589 22.5807 14.2478C22.7936 14.6647 22.9776 15.0932 23.1309 15.5333C23.3387 16.1636 23.8514 16.6566 24.5038 16.8502L24.7491 16.928H24.7474C25.2261 17.0736 25.548 17.5054 25.5429 17.9917V19.8993C25.548 20.3856 25.2261 20.8191 24.7474 20.9647L24.5021 21.0424H24.5038C23.8514 21.236 23.3387 21.7274 23.1309 22.3577C22.9776 22.7978 22.7936 23.2279 22.5807 23.6448C22.269 24.2338 22.2741 24.9336 22.5926 25.5193L22.7102 25.7426V25.741C22.9418 26.1728 22.8567 26.7005 22.4972 27.0397L21.804 27.7163L21.1089 28.3914H21.1106C20.7597 28.7388 20.2163 28.8231 19.7718 28.5965L19.5418 28.484L19.5435 28.4857C18.9405 28.1763 18.2217 28.1713 17.6152 28.4741C17.186 28.6792 16.7431 28.8579 16.2899 29.0084C15.6409 29.2119 15.135 29.7099 14.934 30.3419L14.8539 30.5801V30.5785C14.704 31.0417 14.2594 31.356 13.7587 31.3494H11.7912C11.2904 31.3544 10.8458 31.04 10.6959 30.5768L10.6159 30.3386H10.6176C10.4149 29.7066 9.90895 29.2103 9.26163 29.0068C8.80851 28.8546 8.36563 28.6759 7.93636 28.4708C7.32995 28.1697 6.60938 28.173 6.00807 28.4824L5.77811 28.5949C5.33523 28.8199 4.79184 28.7371 4.44093 28.3897L3.74421 27.7164L3.04919 27.0414C2.69147 26.7006 2.60631 26.1744 2.83797 25.7427L2.9555 25.5193C3.27234 24.9337 3.27745 24.2355 2.96743 23.6449C2.75279 23.2296 2.57053 22.7995 2.41893 22.3577C2.2077 21.7274 1.69325 21.2377 1.04084 21.0441L0.795549 20.9664C0.318569 20.8191 -0.00504261 20.3873 5.94757e-05 19.9009V17.9934C-0.00505046 17.507 0.320305 17.0736 0.79895 16.928L1.04424 16.8502H1.04254C1.69495 16.6567 2.20769 16.1653 2.41548 15.535C2.56879 15.0949 2.75276 14.6648 2.96738 14.2478C3.2774 13.6589 3.27229 12.9591 2.95545 12.3734L2.83792 12.1501C2.60625 11.7199 2.69142 11.1922 3.04915 10.853L3.74416 10.178L4.43918 9.50133H4.43748C4.78838 9.1539 5.33008 9.07119 5.77466 9.29453L6.00462 9.40868C6.60593 9.71805 7.32645 9.72302 7.9312 9.42191C8.36217 9.21511 8.80336 9.03644 9.25648 8.8859C9.90549 8.68241 10.4114 8.18445 10.6124 7.55247L10.6925 7.31423V7.31589C10.8407 6.85098 11.287 6.53499 11.7878 6.53999H13.7586C14.2611 6.53502 14.7057 6.84936 14.8539 7.31589L14.934 7.55412V7.55247C15.135 8.18445 15.6409 8.68244 16.2899 8.8859C16.743 9.03645 17.1859 9.21512 17.6152 9.42191C18.2216 9.72302 18.9405 9.71802 19.5435 9.40864ZM19.1755 31.6654C20.2913 31.6654 21.2963 32.3172 21.7239 33.3181C22.1514 34.319 21.9164 35.4704 21.1277 36.2364C20.339 37.0024 19.1534 37.2324 18.1228 36.8188C17.0923 36.4052 16.4194 35.4274 16.4194 34.3438C16.4194 32.8664 17.6527 31.667 19.1755 31.6654ZM19.1755 0.0016547C20.2913 0.0016547 21.2963 0.653505 21.7239 1.65438C22.1514 2.65526 21.9164 3.80675 21.1277 4.57274C20.339 5.34038 19.1534 5.5687 18.1228 5.15508C17.0923 4.74149 16.4194 3.76371 16.4194 2.68177C16.4194 1.20273 17.6527 0.00330646 19.1755 0.0016547ZM36.4228 26.9253L36.5607 26.8574C36.8248 26.7234 37.1501 26.7731 37.3579 26.9815L38.1858 27.7856L38.1841 27.7839C38.397 27.9857 38.4481 28.3001 38.3101 28.5565L38.2403 28.6905L38.2386 28.6888C38.0512 29.0379 38.0478 29.4532 38.2318 29.8039C38.3595 30.0521 38.4685 30.3102 38.5605 30.5716C38.6849 30.9471 38.9898 31.2399 39.3782 31.3558L39.5247 31.4004C39.8108 31.4881 40.005 31.7478 39.9999 32.0407V33.1772C40.0033 33.4668 39.8108 33.7249 39.5247 33.8125L39.3782 33.8572H39.3799C38.9915 33.973 38.6866 34.2658 38.5622 34.6414C38.4702 34.9028 38.3595 35.1609 38.2318 35.409C38.0495 35.7614 38.0512 36.1767 38.2403 36.5274L38.3101 36.6614V36.6598C38.4481 36.9179 38.397 37.2322 38.1858 37.4357L37.3579 38.2397L37.3596 38.238C37.1501 38.4448 36.8264 38.4928 36.5607 38.3588L36.4228 38.291C36.0633 38.1073 35.6341 38.1057 35.273 38.2827C35.0157 38.4068 34.7517 38.5143 34.4809 38.6037C34.0959 38.7244 33.7944 39.0206 33.6734 39.3961L33.6274 39.5384C33.5389 39.8163 33.2731 40.0033 32.9733 40H31.8014C31.5033 40.0033 31.2358 39.8163 31.1473 39.5384L31.1013 39.3961C30.982 39.0206 30.6805 38.7244 30.2938 38.6037C30.023 38.5143 29.7589 38.4068 29.5034 38.2827C29.1423 38.1057 28.7148 38.1073 28.3553 38.291L28.2174 38.3588C27.9533 38.4928 27.6314 38.4448 27.4219 38.238L26.594 37.434L26.5957 37.4357C26.3828 37.2322 26.3317 36.9178 26.468 36.6598L26.5378 36.5258L26.5395 36.5274C26.7269 36.1767 26.7303 35.7614 26.5463 35.409C26.4186 35.1609 26.3096 34.9045 26.2193 34.6414C26.0932 34.2659 25.7883 33.973 25.3999 33.8572L25.2534 33.8125C24.969 33.7249 24.7765 33.4668 24.7782 33.1772V32.0407C24.7765 31.7495 24.969 31.4914 25.2534 31.4054L25.3999 31.3607C25.7883 31.2432 26.0932 30.9504 26.2193 30.5765C26.3096 30.3135 26.4186 30.0554 26.5463 29.8072C26.7303 29.4565 26.7269 29.0412 26.5395 28.6938L26.4697 28.5598H26.468C26.3317 28.3034 26.3828 27.989 26.5957 27.7872L27.4236 26.9832L27.4219 26.9848C27.6297 26.7764 27.9534 26.7267 28.2174 26.8608L28.3553 26.9286V26.9302C28.7148 27.1122 29.1423 27.1139 29.5034 26.9369C29.759 26.8128 30.023 26.7069 30.2938 26.6176C30.6805 26.4968 30.982 26.2006 31.1013 25.8234L31.1473 25.6812C31.2375 25.4049 31.5033 25.2163 31.8014 25.2196H32.9716C33.2714 25.2163 33.5372 25.4049 33.6257 25.6812L33.6717 25.8234C33.7927 26.2006 34.0925 26.4968 34.4792 26.6176C34.75 26.7069 35.0141 26.8128 35.2713 26.9369C35.6324 27.1139 36.0616 27.1122 36.4211 26.9302L36.4228 26.9253ZM32.3874 28.6905C34.0209 28.6922 35.4927 29.6468 36.1161 31.1126C36.7396 32.5767 36.3955 34.2626 35.2406 35.3843C34.0857 36.5043 32.3499 36.8402 30.8423 36.2347C29.3331 35.6275 28.3503 34.1997 28.3485 32.6132C28.3485 31.5726 28.7727 30.5749 29.5307 29.8387C30.2887 29.1025 31.3159 28.6889 32.3874 28.6905ZM32.3874 18.124C33.5031 18.1256 34.5081 18.7775 34.9357 19.7784C35.3616 20.7793 35.1265 21.9307 34.3378 22.6967C33.5491 23.4627 32.3635 23.6927 31.333 23.2774C30.3024 22.8638 29.6296 21.8877 29.6296 20.8041C29.6296 20.0927 29.9191 19.4111 30.437 18.9098C30.9548 18.4068 31.6566 18.124 32.3874 18.124ZM36.4228 2.09773L36.5607 2.0299C36.8248 1.89589 37.1484 1.94387 37.3579 2.15067L38.1858 2.95469L38.1841 2.95304C38.3987 3.15653 38.4498 3.47253 38.3101 3.73059L38.2403 3.8646C38.0512 4.21368 38.0495 4.63059 38.2318 4.98296C38.3595 5.23112 38.4702 5.48755 38.5622 5.7506C38.6866 6.12615 38.9915 6.41897 39.3799 6.53481L39.5264 6.57947H39.5247C39.8108 6.66716 40.0033 6.92525 39.9999 7.21476V8.35134C40.0033 8.64252 39.8108 8.90061 39.5247 8.98663L39.3782 9.0313H39.3799C38.9915 9.14876 38.6866 9.43994 38.5622 9.8155C38.4685 10.0786 38.3595 10.335 38.2318 10.5848C38.0495 10.9355 38.0512 11.3508 38.2403 11.6982L38.3101 11.8322C38.4481 12.0886 38.3987 12.403 38.1858 12.6048L37.3579 13.4088L37.3596 13.4072C37.1501 13.614 36.8264 13.6636 36.5607 13.5313L36.4228 13.4634V13.4618C36.0633 13.2798 35.6341 13.2765 35.273 13.4552C35.0157 13.5792 34.7517 13.6851 34.4809 13.7728C34.0942 13.8952 33.7944 14.1914 33.6734 14.5686L33.6274 14.7108C33.5389 14.9871 33.2731 15.1757 32.9733 15.1724H31.8014C31.5033 15.1757 31.2375 14.9871 31.1473 14.7108L31.1013 14.5686C30.982 14.1914 30.6805 13.8952 30.2938 13.7728C30.023 13.6851 29.7589 13.5792 29.5034 13.4552C29.1423 13.2781 28.7148 13.2798 28.3553 13.4618L28.2174 13.5296V13.5313C27.9533 13.6653 27.6297 13.614 27.4219 13.4072L26.594 12.6032L26.5957 12.6048C26.3828 12.403 26.3317 12.0886 26.468 11.8322L26.5378 11.6982H26.5395C26.7269 11.3508 26.7303 10.9355 26.5463 10.5848C26.4186 10.335 26.3096 10.0786 26.2193 9.8155C26.0932 9.43995 25.7883 9.14879 25.3999 9.0313L25.2534 8.98663C24.969 8.9006 24.7765 8.64252 24.7782 8.35134V7.21476C24.7765 6.92359 24.969 6.66714 25.2534 6.57947L25.3999 6.53481C25.7883 6.41734 26.0932 6.12451 26.2193 5.7506C26.3096 5.48756 26.4186 5.22945 26.5463 4.98131C26.7286 4.62892 26.7235 4.21367 26.5344 3.8646L26.4646 3.73059H26.4629C26.3266 3.47416 26.3777 3.1598 26.5906 2.95634L27.4185 2.15232L27.4168 2.15397C27.6246 1.94717 27.9482 1.89754 28.2122 2.0332L28.3502 2.10103C28.7097 2.28302 29.1372 2.28632 29.4983 2.10765C29.7538 1.98357 30.0179 1.87769 30.2887 1.78835C30.6754 1.66757 30.9752 1.37144 31.0962 0.994235L31.1421 0.851955C31.2307 0.57236 31.4999 0.382095 31.8014 0.38705H32.9716C33.2714 0.383741 33.5372 0.572343 33.6257 0.84861L33.6717 0.990889C33.7927 1.36809 34.0942 1.66256 34.4792 1.78335C34.75 1.87434 35.0141 1.98022 35.2713 2.1043C35.6324 2.28298 36.0616 2.27967 36.4211 2.09768L36.4228 2.09773ZM32.3874 3.86134C34.0209 3.86134 35.4927 4.81758 36.1161 6.2834C36.7413 7.74753 36.3938 9.43338 35.2406 10.5551C34.0857 11.6768 32.3482 12.011 30.8406 11.4038C29.3314 10.7966 28.3485 9.36723 28.3485 7.7823C28.3502 5.61669 30.1576 3.86134 32.3874 3.86134ZM12.7757 12.37C14.5711 12.37 16.2932 13.0632 17.5625 14.2974C18.8332 15.5316 19.5453 17.2042 19.5453 18.9477C19.5453 20.6931 18.8315 22.3657 17.5608 23.5981C16.2917 24.8323 14.5696 25.5238 12.7727 25.5238C10.9773 25.5238 9.2551 24.8306 7.98455 23.5981C6.71548 22.3639 6.00176 20.6913 6.00176 18.9477C6.00176 17.2023 6.71548 15.5297 7.98625 14.2957C9.25702 13.0615 10.9792 12.37 12.7761 12.37L12.7757 12.37Z" fill="white"/>
</svg>
