<svg width="324" height="88" viewBox="0 0 324 88" fill="none" xmlns="http://www.w3.org/2000/svg">
<path d="M22.1566 86L0.196569 1.99999H18.1966L32.3566 67.04L49.3966 1.99999H67.8766L84.3166 67.04L98.7166 1.99999H116.837L94.2766 86H74.2366L58.3966 25.64L42.0766 86H22.1566ZM195.369 86V1.99999H212.169V86H195.369ZM142.449 86V1.99999H159.249V86H142.449ZM157.089 49.88V36.32H198.129V49.88H157.089ZM281.745 87.44C273.585 87.44 266.385 85.6 260.145 81.92C253.905 78.24 248.985 73.16 245.385 66.68C241.865 60.12 240.105 52.56 240.105 44C240.105 35.44 241.865 27.92 245.385 21.44C248.985 14.88 253.905 9.76 260.145 6.08C266.385 2.4 273.585 0.559999 281.745 0.559999C289.985 0.559999 297.225 2.4 303.465 6.08C309.785 9.76 314.665 14.88 318.105 21.44C321.625 27.92 323.385 35.44 323.385 44C323.385 52.56 321.625 60.12 318.105 66.68C314.665 73.16 309.785 78.24 303.465 81.92C297.225 85.6 289.985 87.44 281.745 87.44ZM281.745 72.32C286.785 72.32 291.145 71.16 294.825 68.84C298.505 66.52 301.345 63.28 303.345 59.12C305.345 54.88 306.345 49.84 306.345 44C306.345 38.16 305.345 33.16 303.345 29C301.345 24.76 298.505 21.48 294.825 19.16C291.145 16.84 286.785 15.68 281.745 15.68C276.785 15.68 272.465 16.84 268.785 19.16C265.185 21.48 262.345 24.76 260.265 29C258.265 33.16 257.265 38.16 257.265 44C257.265 49.84 258.265 54.88 260.265 59.12C262.345 63.28 265.185 66.52 268.785 68.84C272.465 71.16 276.785 72.32 281.745 72.32Z" fill="url(#paint0_linear_3774_300)"/>
<defs>
<linearGradient id="paint0_linear_3774_300" x1="163" y1="0" x2="163" y2="90" gradientUnits="userSpaceOnUse">
<stop offset="0.4" stop-color="#F5F5F5"/>
<stop offset="1" stop-color="white"/>
</linearGradient>
</defs>
</svg>
